<svg width="261" height="131" viewBox="0 0 261 131" fill="none" xmlns="http://www.w3.org/2000/svg">
<path d="M116.944 130.591H115.21L130.883 126.394C130.074 126.992 129.204 127.534 128.273 128.019C127.779 128.28 127.272 128.521 126.753 128.743L120.754 130.349C119.534 130.51 118.263 130.591 116.944 130.591Z" fill="#FFD466"/>
<path d="M144.155 125.325V126.568L154.193 123.88V122.637L144.155 125.325Z" fill="#FFD466"/>
<path d="M144.155 129.054V127.811L154.193 125.123V126.366L144.155 129.054Z" fill="#FFD466"/>
<path d="M144.155 130.297V130.591H147.7L154.193 128.852V127.609L144.155 130.297Z" fill="#FFD466"/>
<path d="M154.193 130.591H152.342L154.193 130.095V130.591Z" fill="#FFD466"/>
<path d="M164.114 128.681L163.514 127.599L173.226 124.998L173.855 126.073L164.114 128.681Z" fill="#FFD466"/>
<path d="M164.713 129.764L165.17 130.591H166.266L175.113 128.222L174.484 127.147L164.713 129.764Z" fill="#FFD466"/>
<path d="M175.549 130.591H170.907L175.742 129.296L176.371 130.371L175.549 130.591Z" fill="#FFD466"/>
<path d="M190.454 127.842C190.716 128.004 190.982 128.16 191.254 128.312C191.486 128.44 191.72 128.564 191.956 128.683L219.985 121.177C220.055 121.062 220.125 120.947 220.193 120.831C220.406 120.464 220.606 120.093 220.795 119.717L190.454 127.842Z" fill="#FFD466"/>
<path d="M195.729 130.159C195.036 129.961 194.355 129.73 193.686 129.463L218.964 122.693C218.553 123.25 218.118 123.781 217.658 124.286L195.729 130.159Z" fill="#FFD466"/>
<path d="M198.278 130.719C199.444 130.903 200.641 130.997 201.87 131L213.125 127.986C214.111 127.395 215.032 126.734 215.887 126.003L198.278 130.719Z" fill="#FFD466"/>
<path d="M228.595 126.329V125.086L238.633 122.398V123.641L228.595 126.329Z" fill="#FFD466"/>
<path d="M228.595 127.572V128.815L238.633 126.127V124.884L228.595 127.572Z" fill="#FFD466"/>
<path d="M228.595 130.591V130.058L238.633 127.37V128.613L231.246 130.591H228.595Z" fill="#FFD466"/>
<path d="M235.888 130.591H238.633V129.856L235.888 130.591Z" fill="#FFD466"/>
<path d="M238.633 119.912V121.155L228.595 123.843V122.6L238.633 119.912Z" fill="#FFD466"/>
<path d="M238.633 118.669V117.426L228.595 120.114V121.357L238.633 118.669Z" fill="#FFD466"/>
<path d="M238.633 115.863H239.828L256.942 111.28C257.383 110.792 257.775 110.273 258.117 109.722L228.595 117.628V118.871L238.633 116.183V115.863Z" fill="#FFD466"/>
<path d="M244.855 115.863H244.47L254.914 113.066C254.416 113.418 253.881 113.746 253.308 114.051C251.038 115.259 248.221 115.863 244.855 115.863Z" fill="#FFD466"/>
<path d="M258.872 108.277L228.595 116.385V115.142L259.391 106.895C259.244 107.365 259.071 107.826 258.872 108.277Z" fill="#FFD466"/>
<path d="M221.438 118.302L189.129 126.954C188.723 126.659 188.33 126.35 187.949 126.027L204.027 121.722C204.775 121.601 205.481 121.411 206.145 121.154L221.945 116.923C221.792 117.389 221.623 117.849 221.438 118.302Z" fill="#FFD466"/>
<path d="M222.335 115.576L209.393 119.042C209.533 118.903 209.669 118.759 209.803 118.61C210.141 118.24 210.451 117.85 210.732 117.44L222.625 114.255C222.542 114.701 222.445 115.141 222.335 115.576Z" fill="#FFD466"/>
<path d="M228.595 113.899L259.731 105.561C259.816 105.136 259.88 104.705 259.925 104.266L228.595 112.656V113.899Z" fill="#FFD466"/>
<path d="M186.893 125.067L199.547 121.678C198.761 121.536 198.021 121.32 197.327 121.03L185.947 124.077C186.252 124.419 186.567 124.748 186.893 125.067Z" fill="#FFD466"/>
<path d="M211.575 115.971L222.827 112.958C222.88 112.537 222.921 112.112 222.951 111.682L212.125 114.581C211.969 115.063 211.786 115.527 211.575 115.971Z" fill="#FFD466"/>
<path d="M259.998 103.003C259.999 102.926 260 102.849 260 102.771C260 102.432 259.99 102.097 259.97 101.768L249.561 104.555C249.412 105.088 249.189 105.562 248.892 105.978L259.998 103.003Z" fill="#FFD466"/>
<path d="M241.661 107.914L228.595 111.413V110.17L238.633 107.482V107.914H241.661Z" fill="#FFD466"/>
<path d="M195.768 120.204L185.097 123.062C184.833 122.726 184.578 122.38 184.332 122.024L194.575 119.281C194.952 119.622 195.35 119.93 195.768 120.204Z" fill="#FFD466"/>
<path d="M183.645 120.965L193.631 118.291C193.36 117.959 193.11 117.611 192.882 117.248L183.046 119.882C183.21 120.202 183.382 120.518 183.564 120.831C183.582 120.862 183.601 120.892 183.62 120.923L183.645 120.965Z" fill="#FFD466"/>
<path d="M223.006 110.424L212.478 113.243C212.566 112.823 212.635 112.39 212.687 111.945L222.999 109.183C223.007 109.44 223.011 109.699 223.011 109.96C223.011 110.115 223.009 110.27 223.006 110.424Z" fill="#FFD466"/>
<path d="M228.595 108.927L238.633 106.239V104.996L228.595 107.684V108.927Z" fill="#FFD466"/>
<path d="M259.85 100.557L249.772 103.256C249.781 103.098 249.786 102.937 249.786 102.771C249.786 102.511 249.774 102.26 249.75 102.019L259.632 99.3726C259.72 99.7592 259.793 100.154 259.85 100.557Z" fill="#FFD466"/>
<path d="M162.915 126.516L172.597 123.924L171.968 122.849L162.316 125.434L162.915 126.516Z" fill="#FFD466"/>
<path d="M192.284 116.165L182.521 118.78C182.359 118.411 182.208 118.037 182.068 117.658L191.819 115.047C191.956 115.433 192.111 115.806 192.284 116.165Z" fill="#FFD466"/>
<path d="M212.783 110.676L222.93 107.958C222.897 107.551 222.853 107.149 222.799 106.751L212.79 109.431C212.794 109.606 212.797 109.782 212.797 109.96C212.797 110.202 212.792 110.44 212.783 110.676Z" fill="#FFD466"/>
<path d="M238.633 103.753L228.595 106.441V105.198L238.633 102.51V103.753Z" fill="#FFD466"/>
<path d="M249.517 100.838L259.31 98.2157C259.184 97.8309 259.04 97.4551 258.879 97.0882L249.006 99.7323C249.221 100.066 249.391 100.435 249.517 100.838Z" fill="#FFD466"/>
<path d="M171.339 121.774L161.717 124.351L161.118 123.269L170.71 120.7L171.339 121.774Z" fill="#FFD466"/>
<path d="M181.684 116.518L191.472 113.897C191.376 113.515 191.295 113.123 191.23 112.719L181.368 115.36C181.463 115.75 181.568 116.136 181.684 116.518Z" fill="#FFD466"/>
<path d="M222.603 105.56L212.713 108.208C212.673 107.798 212.618 107.398 212.548 107.01L222.342 104.387C222.44 104.773 222.527 105.164 222.603 105.56Z" fill="#FFD466"/>
<path d="M228.595 103.955L238.633 101.267V100.024L228.595 102.712V103.955Z" fill="#FFD466"/>
<path d="M258.331 95.992L248.1 98.7318C247.65 98.3776 247.108 98.1086 246.472 97.9249L257.651 94.9311C257.884 95.252 258.099 95.5859 258.298 95.933L258.331 95.992Z" fill="#FFD466"/>
<path d="M160.519 122.186L170.081 119.625L169.453 118.551L159.92 121.103L160.519 122.186Z" fill="#FFD466"/>
<path d="M168.824 117.476L159.321 120.021L158.722 118.938L168.195 116.402L168.824 117.476Z" fill="#FFD466"/>
<path d="M191.083 111.515L181.119 114.184C181.047 113.79 180.985 113.392 180.934 112.99L191.021 110.289C191.028 110.707 191.049 111.116 191.083 111.515Z" fill="#FFD466"/>
<path d="M212.283 105.838L222.014 103.232C221.892 102.848 221.759 102.469 221.615 102.095L211.908 104.695C212.05 105.063 212.175 105.444 212.283 105.838Z" fill="#FFD466"/>
<path d="M238.633 98.7812L228.595 101.469V100.226L255.792 92.9429C256.156 93.2482 256.497 93.5714 256.813 93.9124L242.939 97.6279H238.633V98.7812Z" fill="#FFD466"/>
<path d="M154.193 121.394L144.155 124.082V122.839L154.193 120.151V121.394Z" fill="#FFD466"/>
<path d="M144.155 121.596L154.193 118.908V117.665L144.155 120.353V121.596Z" fill="#FFD466"/>
<path d="M158.123 117.856L167.566 115.327L166.99 114.343C167.469 114.201 167.929 114.042 168.371 113.868L157.524 116.773L158.123 117.856Z" fill="#FFD466"/>
<path d="M180.812 111.78L191.04 109.041C191.061 108.605 191.096 108.181 191.146 107.769L180.753 110.553C180.763 110.966 180.782 111.375 180.812 111.78Z" fill="#FFD466"/>
<path d="M221.146 100.978L211.408 103.586C211.215 103.214 211.001 102.857 210.767 102.515L220.604 99.8805C220.796 100.241 220.977 100.607 221.146 100.978Z" fill="#FFD466"/>
<path d="M228.595 98.9834L254.554 92.0315C254.125 91.7543 253.671 91.4963 253.191 91.2574C253.145 91.2348 253.1 91.2124 253.054 91.1903L228.595 97.7404V98.9834Z" fill="#FFD466"/>
<path d="M110.569 130.591L132.966 124.593C133.473 124.081 133.947 123.54 134.389 122.969L105.927 130.591H110.569Z" fill="#FFD466"/>
<path d="M154.193 116.422L144.155 119.11V117.867L154.193 115.179V116.422Z" fill="#FFD466"/>
<path d="M172.147 111.614L156.925 115.691L156.6 115.103H154.478L173.669 109.964C173.222 110.565 172.714 111.115 172.147 111.614Z" fill="#FFD466"/>
<path d="M191.362 106.468L180.754 109.309C180.765 108.884 180.787 108.464 180.819 108.049L191.721 105.129C191.58 105.559 191.461 106.006 191.362 106.468Z" fill="#FFD466"/>
<path d="M209.964 101.487L219.99 98.8019C219.772 98.4392 219.544 98.0858 219.307 97.7417L208.994 100.504C209.275 100.753 209.545 101.022 209.803 101.31C209.857 101.368 209.911 101.427 209.964 101.487Z" fill="#FFD466"/>
<path d="M251.185 90.4477L228.595 96.4974V95.2544L248.731 89.862C249.596 90.0056 250.414 90.2008 251.185 90.4477Z" fill="#FFD466"/>
<path d="M135.449 121.442L101.505 130.532V129.289L136.281 119.976C136.142 120.245 135.997 120.51 135.845 120.772C135.717 120.999 135.585 121.223 135.449 121.442Z" fill="#FFD466"/>
<path d="M144.155 116.624L174.647 108.459C174.903 107.997 175.126 107.523 175.316 107.037L144.155 115.381V116.624Z" fill="#FFD466"/>
<path d="M180.955 106.769L192.28 103.737C192.53 103.216 192.818 102.725 193.142 102.263L181.171 105.469C181.087 105.897 181.015 106.33 180.955 106.769Z" fill="#FFD466"/>
<path d="M218.542 96.7037L207.777 99.5864C207.271 99.266 206.735 98.9954 206.168 98.7744L217.684 95.6903C217.981 96.0174 218.267 96.3551 218.542 96.7037Z" fill="#FFD466"/>
<path d="M228.595 94.0114L245.2 89.5646C245.086 89.5632 244.971 89.5625 244.855 89.5625H240.567L228.595 92.7684V94.0114Z" fill="#FFD466"/>
<path d="M101.505 128.046L136.942 118.556C137.131 118.104 137.303 117.644 137.459 117.175L101.505 126.803V128.046Z" fill="#FFD466"/>
<path d="M94.4461 128.694L95.075 129.768L92.0027 130.591H87.3613L94.4461 128.694Z" fill="#FFD466"/>
<path d="M175.755 105.676L144.155 114.139V112.896L176.016 104.363C175.952 104.809 175.865 105.247 175.755 105.676Z" fill="#FFD466"/>
<path d="M194.579 100.635L181.478 104.144C181.599 103.686 181.737 103.235 181.889 102.79L215.646 93.7503C216.018 94.0557 216.377 94.3739 216.724 94.7047L203.805 98.1644C203.208 98.0795 202.585 98.037 201.937 98.037C198.947 98.037 196.494 98.903 194.579 100.635Z" fill="#FFD466"/>
<path d="M235.925 89.5625L228.595 91.5255V90.2825L231.284 89.5625H235.925Z" fill="#FFD466"/>
<path d="M137.854 115.826L124.558 119.387C124.766 119.214 124.968 119.033 125.162 118.843C125.52 118.493 125.849 118.118 126.146 117.718L138.147 114.505C138.063 114.952 137.965 115.392 137.854 115.826Z" fill="#FFD466"/>
<path d="M115.02 121.941L101.505 125.56V124.317L111.543 121.629V121.941H115.02Z" fill="#FFD466"/>
<path d="M93.8171 127.619L84.0327 130.239L83.4337 129.157L93.1882 126.545L93.8171 127.619Z" fill="#FFD466"/>
<path d="M101.505 123.074L111.543 120.386V119.143L101.505 121.831V123.074Z" fill="#FFD466"/>
<path d="M138.352 113.207L127.058 116.231C127.278 115.789 127.47 115.323 127.633 114.834L138.479 111.93C138.448 112.361 138.405 112.787 138.352 113.207Z" fill="#FFD466"/>
<path d="M182.422 101.405L214.434 92.8317C213.994 92.5239 213.539 92.2316 213.068 91.9547L183.1 99.98C182.855 100.447 182.629 100.921 182.422 101.405Z" fill="#FFD466"/>
<path d="M165.069 106.052L176.134 103.089C176.143 102.887 176.147 102.684 176.147 102.479C176.147 102.266 176.143 102.055 176.134 101.846L165.719 104.635C165.575 105.164 165.358 105.637 165.069 106.052Z" fill="#FFD466"/>
<path d="M144.155 111.653L157.678 108.031H154.193V107.721L144.155 110.41V111.653Z" fill="#FFD466"/>
<path d="M82.8346 128.074L92.5593 125.47L91.9304 124.395L82.2356 126.992L82.8346 128.074Z" fill="#FFD466"/>
<path d="M68.7955 130.591H73.2502V129.398L68.7955 130.591Z" fill="#FFD466"/>
<path d="M91.3015 123.321L81.6366 125.909L81.0375 124.827L90.6725 122.246L91.3015 123.321Z" fill="#FFD466"/>
<path d="M111.543 117.9L101.505 120.588V119.345L111.543 116.657V117.9Z" fill="#FFD466"/>
<path d="M127.996 113.494L138.539 110.671C138.543 110.474 138.546 110.276 138.546 110.077C138.546 109.859 138.543 109.643 138.538 109.428L128.211 112.194C128.157 112.642 128.086 113.075 127.996 113.494Z" fill="#FFD466"/>
<path d="M154.193 106.478L144.155 109.167V107.924L154.193 105.235V106.478Z" fill="#FFD466"/>
<path d="M165.921 103.338L176.031 100.63C175.978 100.227 175.909 99.8318 175.822 99.4433L165.89 102.103C165.919 102.355 165.933 102.616 165.933 102.888C165.933 103.041 165.929 103.191 165.921 103.338Z" fill="#FFD466"/>
<path d="M211.526 91.1246L183.964 98.5059C184.308 97.9735 184.671 97.4619 185.054 96.9709L209.75 90.3573C210.352 90.5849 210.944 90.8407 211.526 91.1246Z" fill="#FFD466"/>
<path d="M73.2502 128.155L64.154 130.591H63.2124V129.6L73.2502 126.912V128.155Z" fill="#FFD466"/>
<path d="M80.4385 123.744L90.0436 121.172L89.4147 120.097L79.8394 122.661L80.4385 123.744Z" fill="#FFD466"/>
<path d="M101.505 118.102L111.543 115.414V114.171L101.505 116.859V118.102Z" fill="#FFD466"/>
<path d="M138.479 108.201L128.313 110.923C128.326 110.646 128.332 110.364 128.332 110.077C128.332 109.942 128.33 109.809 128.328 109.676L138.36 106.99C138.41 107.388 138.449 107.792 138.479 108.201Z" fill="#FFD466"/>
<path d="M144.155 106.681L154.193 103.992V102.749L144.155 105.438V106.681Z" fill="#FFD466"/>
<path d="M175.503 98.2857L165.629 100.93C165.49 100.532 165.304 100.168 165.07 99.8366L175.07 97.1585C175.233 97.5266 175.377 97.9024 175.503 98.2857Z" fill="#FFD466"/>
<path d="M186.455 95.3526L207.627 89.6829C206.746 89.4542 205.845 89.2812 204.924 89.1638L188.383 93.5935C187.702 94.1383 187.059 94.7247 186.455 95.3526Z" fill="#FFD466"/>
<path d="M63.2124 128.357L73.2502 125.669V124.426L63.2124 127.114V128.357Z" fill="#FFD466"/>
<path d="M55.9381 129.062V130.305L54.8712 130.591H50.2297L55.9381 129.062Z" fill="#FFD466"/>
<path d="M73.2502 123.183L63.2124 125.871V124.628L73.2502 121.94V123.183Z" fill="#FFD466"/>
<path d="M88.7858 119.023L79.2404 121.579L78.6414 120.496L88.1569 117.948L88.7858 119.023Z" fill="#FFD466"/>
<path d="M111.543 112.928L101.505 115.616V114.373L111.543 111.685V112.928Z" fill="#FFD466"/>
<path d="M128.262 108.451L138.179 105.795C138.107 105.397 138.026 105.005 137.933 104.618L128.109 107.249C128.175 107.638 128.225 108.039 128.262 108.451Z" fill="#FFD466"/>
<path d="M154.193 101.506L144.155 104.195V102.952L154.193 100.263V101.506Z" fill="#FFD466"/>
<path d="M164.111 98.8504L174.52 96.063L174.503 96.0345L174.477 95.988L174.445 95.933C174.261 95.6108 174.061 95.2999 173.847 95.0003L162.377 98.0719C163.055 98.2356 163.634 98.4951 164.111 98.8504Z" fill="#FFD466"/>
<path d="M191.564 91.4986L200.894 89C197.542 89.1423 194.432 89.9752 191.564 91.4986Z" fill="#FFD466"/>
<path d="M55.9381 127.819L45.9002 130.507V129.264L55.9381 126.576V127.819Z" fill="#FFD466"/>
<path d="M41.3624 130.591H40.9468L41.3255 130.49L41.3624 130.591Z" fill="#FFD466"/>
<path d="M45.9002 128.021L55.9381 125.333V124.09L45.9002 126.778V128.021Z" fill="#FFD466"/>
<path d="M63.2124 123.385L73.2502 120.697V119.454L63.2124 122.142V123.385Z" fill="#FFD466"/>
<path d="M78.0423 119.414L87.5279 116.874L86.899 115.799L77.4433 118.331L78.0423 119.414Z" fill="#FFD466"/>
<path d="M101.505 113.13L111.543 110.442V109.199L101.505 111.887V113.13Z" fill="#FFD466"/>
<path d="M137.62 103.459L127.859 106.073C127.756 105.677 127.636 105.295 127.499 104.926L137.236 102.319C137.375 102.693 137.503 103.073 137.62 103.459Z" fill="#FFD466"/>
<path d="M144.155 101.709L154.193 99.0205V97.8617H158.52L173.015 93.9799C172.701 93.6386 172.362 93.315 171.999 93.009L144.155 100.466V101.709Z" fill="#FFD466"/>
<path d="M36.3054 130.591L40.9139 129.357L40.5022 128.224L31.6639 130.591H36.3054Z" fill="#FFD466"/>
<path d="M55.9381 122.847L45.9002 125.535V124.293L55.9381 121.604V122.847Z" fill="#FFD466"/>
<path d="M73.2502 118.211L63.2124 120.899V119.656L73.2502 116.968V118.211Z" fill="#FFD466"/>
<path d="M86.2701 114.724L76.8442 117.249L76.2452 116.166L90.1343 112.447C88.9717 113.246 87.6093 113.879 86.047 114.343L86.2701 114.724Z" fill="#FFD466"/>
<path d="M111.543 107.956L101.505 110.644V109.401L111.543 106.713V107.956Z" fill="#FFD466"/>
<path d="M127.015 103.813L136.778 101.198C136.612 100.825 136.434 100.459 136.244 100.098L126.387 102.738C126.617 103.08 126.826 103.438 127.015 103.813Z" fill="#FFD466"/>
<path d="M170.766 92.0964L144.155 99.2227V97.9797L169.272 91.2535L169.279 91.2574C169.805 91.5148 170.301 91.7944 170.766 92.0964Z" fill="#FFD466"/>
<path d="M40.0906 127.091L30.4273 129.679L30.0398 128.54L39.6789 125.959L40.0906 127.091Z" fill="#FFD466"/>
<path d="M45.9002 123.05L55.9381 120.361V119.118L45.9002 121.807V123.05Z" fill="#FFD466"/>
<path d="M63.2124 118.413L73.2502 115.725V115.103H75.5734L92.1599 110.661C92.4071 110.382 92.6392 110.089 92.8563 109.784C93.0187 109.562 93.1727 109.337 93.3183 109.108L63.2124 117.17V118.413Z" fill="#FFD466"/>
<path d="M135.635 99.0184L125.592 101.708C125.454 101.552 125.311 101.4 125.162 101.252C124.98 101.07 124.792 100.897 124.597 100.731L134.956 97.9574C135.193 98.3012 135.419 98.6548 135.635 99.0184Z" fill="#FFD466"/>
<path d="M144.155 96.7367L167.441 90.5009C166.687 90.2495 165.89 90.0487 165.049 89.8983L144.155 95.4937V96.7367Z" fill="#FFD466"/>
<path d="M101.505 108.158L111.543 105.47V104.227L101.505 106.915V108.158Z" fill="#FFD466"/>
<path d="M29.6522 127.401L39.2673 124.826L38.8556 123.693L29.2647 126.262L29.6522 127.401Z" fill="#FFD466"/>
<path d="M55.9381 117.875L45.9002 120.564V119.321L55.9381 116.632V117.875Z" fill="#FFD466"/>
<path d="M94.1117 107.652L63.2124 115.927V114.684L94.6439 106.267C94.4959 106.74 94.3185 107.202 94.1117 107.652Z" fill="#FFD466"/>
<path d="M111.543 102.984L101.505 105.672V104.429L111.543 101.741V102.984Z" fill="#FFD466"/>
<path d="M123.344 99.8241L134.186 96.9207C133.907 96.5727 133.617 96.2362 133.314 95.9111L121.715 99.0172C122.292 99.2443 122.834 99.5132 123.344 99.8241Z" fill="#FFD466"/>
<path d="M161.635 89.5697L144.155 94.2507V93.0078L157.02 89.5625H161.002C161.215 89.5625 161.426 89.5649 161.635 89.5697Z" fill="#FFD466"/>
<path d="M38.444 122.56L28.8771 125.122L28.4896 123.983L38.0323 121.428L38.444 122.56Z" fill="#FFD466"/>
<path d="M10.6245 130.01L11.0898 128.643L3.81521 130.591H8.45667L10.6245 130.01Z" fill="#FFD466"/>
<path d="M26.2356 123.344L37.6207 120.295L37.209 119.162L21.5942 123.344H26.2356Z" fill="#FFD466"/>
<path d="M45.9002 118.078L55.9381 115.389V114.146L45.9002 116.835V118.078Z" fill="#FFD466"/>
<path d="M63.2124 113.441L94.978 104.934C95.0586 104.512 95.1177 104.082 95.1552 103.644L83.5005 106.765C82.6001 107.609 81.2574 108.031 79.4725 108.031H78.7734L63.2124 112.198V113.441Z" fill="#FFD466"/>
<path d="M101.505 103.186L111.543 100.498V99.2553L101.505 101.943V103.186Z" fill="#FFD466"/>
<path d="M132.328 94.9321L119.469 98.3759C118.486 98.1889 117.43 98.0955 116.298 98.0955H115.874L131.212 93.988C131.599 94.2891 131.97 94.6038 132.328 94.9321Z" fill="#FFD466"/>
<path d="M144.155 91.7648L152.379 89.5625H147.738L144.155 90.5218V91.7648Z" fill="#FFD466"/>
<path d="M0 130.37L11.555 127.275L12.0203 125.908L0.500408 128.993L0 130.37Z" fill="#FFD466"/>
<path d="M16.9527 123.344H12.8925L12.4855 124.54L1.00082 127.616L1.50122 126.239L36.3858 116.897L36.7974 118.029L16.9527 123.344Z" fill="#FFD466"/>
<path d="M74.1319 108.031L63.2124 110.955V109.712L73.2502 107.024V108.031H74.1319Z" fill="#FFD466"/>
<path d="M84.5712 105.235L95.204 102.388C95.2016 101.972 95.1822 101.563 95.1459 101.161L84.9245 103.898C84.8576 104.384 84.7398 104.83 84.5712 105.235Z" fill="#FFD466"/>
<path d="M129.946 93.084L101.505 100.7V99.4575L128.506 92.2268C129.004 92.4958 129.484 92.7815 129.946 93.084Z" fill="#FFD466"/>
<path d="M55.9381 112.903L45.9002 115.592V114.349L55.9381 111.66V112.903Z" fill="#FFD466"/>
<path d="M45.9002 113.106L55.9381 110.418V109.175L45.9002 111.863V113.106Z" fill="#FFD466"/>
<path d="M63.2124 108.469L73.2502 105.781V104.538L63.2124 107.226V108.469Z" fill="#FFD466"/>
<path d="M94.9837 99.961L84.9863 102.638C84.9721 102.212 84.921 101.811 84.833 101.436L94.7137 98.7904C94.8215 99.1733 94.9115 99.5635 94.9837 99.961Z" fill="#FFD466"/>
<path d="M101.505 98.2145L126.849 91.4274C126.219 91.1576 125.57 90.9171 124.902 90.7058L101.505 96.9715V98.2145Z" fill="#FFD466"/>
<path d="M2.00163 124.862L35.9741 115.764L35.5625 114.631L2.50204 123.485L2.00163 124.862Z" fill="#FFD466"/>
<path d="M55.9381 107.932L45.9002 110.62V109.377L55.9381 106.689V107.932Z" fill="#FFD466"/>
<path d="M73.2502 103.295L63.2124 105.983V104.74L73.2502 102.052V103.295Z" fill="#FFD466"/>
<path d="M84.4149 100.305L94.3317 97.6497C94.1843 97.2721 94.0182 96.9023 93.8334 96.5401L83.6457 99.2684C83.9557 99.5763 84.2121 99.922 84.4149 100.305Z" fill="#FFD466"/>
<path d="M122.538 90.0959L101.505 95.7285V94.4856L119.5 89.6666C120.548 89.7543 121.561 89.8974 122.538 90.0959Z" fill="#FFD466"/>
<path d="M35.1508 113.498L3.00245 122.108L3.50286 120.731L22.5533 115.629H25.6893L25.4275 114.859L34.7392 112.366L35.1508 113.498Z" fill="#FFD466"/>
<path d="M34.3275 111.233L25.0402 113.72L24.6528 112.581L33.9159 110.1L34.3275 111.233Z" fill="#FFD466"/>
<path d="M45.9002 108.134L55.9381 105.446V104.203L45.9002 106.891V108.134Z" fill="#FFD466"/>
<path d="M63.2124 103.497L73.2502 100.809V99.5664L63.2124 102.255V103.497Z" fill="#FFD466"/>
<path d="M93.217 95.4622L82.3428 98.3743C81.5973 98.0467 80.6872 97.8761 79.6124 97.8626L92.4586 94.4223C92.7323 94.7537 92.9851 95.1003 93.217 95.4622Z" fill="#FFD466"/>
<path d="M101.505 93.2426L115.247 89.5625H110.606L101.505 91.9996V93.2426Z" fill="#FFD466"/>
<path d="M4.00326 119.354L17.9119 115.629H15.534L15.7579 114.963L4.50367 117.977L4.00326 119.354Z" fill="#FFD466"/>
<path d="M24.2655 111.442L33.5042 108.967L33.0926 107.835L23.8782 110.302L24.2655 111.442Z" fill="#FFD466"/>
<path d="M55.9381 102.96L45.9002 105.648V104.405L55.9381 101.717V102.96Z" fill="#FFD466"/>
<path d="M73.2502 98.3234L63.2124 101.012V99.7686L90.3939 92.4893C90.7974 92.7837 91.1751 93.0969 91.5273 93.4288L74.9743 97.8617H73.2502V98.3234Z" fill="#FFD466"/>
<path d="M105.964 89.5625L101.505 90.7566V89.5625H105.964Z" fill="#FFD466"/>
<path d="M16.217 113.597L5.00408 116.6L5.50449 115.223L16.6761 112.231L16.217 113.597Z" fill="#FFD466"/>
<path d="M32.6809 106.702L23.4908 109.163L23.1035 108.024L32.2693 105.569L32.6809 106.702Z" fill="#FFD466"/>
<path d="M45.9002 103.162L55.9381 100.474V99.2306L45.9002 101.919V103.162Z" fill="#FFD466"/>
<path d="M63.2124 98.5256L89.0203 91.6142C88.7983 91.4908 88.5703 91.3719 88.3363 91.2574C88.0192 91.0995 87.6925 90.9526 87.3562 90.8168L63.2124 97.2826V98.5256Z" fill="#FFD466"/>
<path d="M6.00489 113.846L17.1351 110.865L17.5942 109.499L6.5053 112.469L6.00489 113.846Z" fill="#FFD466"/>
<path d="M22.7161 106.885L31.8576 104.436L31.446 103.304L22.3288 105.745L22.7161 106.885Z" fill="#FFD466"/>
<path d="M55.9381 97.9877L45.9002 100.676V99.4328L55.9381 96.7447V97.9877Z" fill="#FFD466"/>
<path d="M85.2447 90.1393L63.2124 96.0396V94.7966L82.3726 89.6655C83.3855 89.7593 84.3429 89.9173 85.2447 90.1393Z" fill="#FFD466"/>
<path d="M18.0533 108.133L7.00571 111.092L7.50612 109.715L18.5124 106.767L18.0533 108.133Z" fill="#FFD466"/>
<path d="M31.0344 102.171L21.9414 104.606L21.5541 103.467L30.6227 101.038L31.0344 102.171Z" fill="#FFD466"/>
<path d="M45.9002 98.1898L55.9381 95.5017V94.2587L45.9002 96.9469V98.1898Z" fill="#FFD466"/>
<path d="M63.2124 93.5536L78.1158 89.5625H73.4744L63.2124 92.3106V93.5536Z" fill="#FFD466"/>
<path d="M8.00653 108.338L18.9715 105.401L19.4305 104.035L8.50694 106.961L8.00653 108.338Z" fill="#FFD466"/>
<path d="M21.1667 102.328L30.2111 99.9054L29.7994 98.7727L20.7794 101.188L21.1667 102.328Z" fill="#FFD466"/>
<path d="M55.9381 93.0157L45.9002 95.7039V94.4609L55.9381 91.7727V93.0157Z" fill="#FFD466"/>
<path d="M68.8329 89.5625L63.2124 91.0677V89.8247L64.1915 89.5625H68.8329Z" fill="#FFD466"/>
<path d="M19.8896 102.67L9.00735 105.584L9.50775 104.207L20.3487 101.304L19.8896 102.67Z" fill="#FFD466"/>
<path d="M45.9002 93.2179L55.9381 90.5298V89.5625H54.9086L45.9002 91.9749V93.2179Z" fill="#FFD466"/>
<path d="M10.0082 102.83L29.3878 97.6399L28.9761 96.5072L10.5086 101.453L10.0082 102.83Z" fill="#FFD466"/>
<path d="M50.2671 89.5625L45.9002 90.7319V89.5625H50.2671Z" fill="#FFD466"/>
<path d="M28.5645 95.3745L11.009 100.076L11.5094 98.6988L28.1528 94.2417L28.5645 95.3745Z" fill="#FFD466"/>
<path d="M27.3295 91.9762L27.7412 93.109L12.0098 97.3219L12.5102 95.9449L27.3295 91.9762Z" fill="#FFD466"/>
<path d="M26.9179 90.8435L26.5062 89.7107L13.511 93.1909L13.0106 94.5679L26.9179 90.8435Z" fill="#FFD466"/>
<path d="M17.777 89.5625H22.4185L14.0114 91.8139L14.5118 90.4369L17.777 89.5625Z" fill="#FFD466"/>
<path d="M31.9836 0.40029C31.0656 -0.13343 29.9344 -0.13343 29.0164 0.40029L1.48363 16.4064C0.565556 16.9401 0 17.9265 0 18.9939V51.0061C0 52.0735 0.565556 53.0599 1.48363 53.5936L29.0164 69.5997C29.9344 70.1334 31.0656 70.1334 31.9836 69.5997L59.5164 53.5936C60.4344 53.0599 61 52.0735 61 51.0061V36.9096C61 36.4422 60.5022 36.1461 60.0956 36.3716L55.3811 38.9869C55.1864 39.0949 55.0655 39.3011 55.0655 39.5249V48.9265C55.0655 49.1459 54.9492 49.3487 54.7605 49.4584L30.805 63.3849C30.6163 63.4946 30.3837 63.4946 30.195 63.3849L6.23952 49.4584C6.05079 49.3487 5.93452 49.1459 5.93452 48.9265V21.0735C5.93452 20.8541 6.05079 20.6513 6.23952 20.5416L30.195 6.61514C30.3837 6.50542 30.6163 6.50542 30.805 6.61514L54.7605 20.5416C54.9492 20.6513 55.0655 20.8541 55.0655 21.0735V32.9102C55.0655 33.3653 55.5398 33.6624 55.9452 33.4612L60.6597 31.1211C60.8681 31.0177 61 30.8041 61 30.5702V18.9939C61 17.9265 60.4344 16.9401 59.5164 16.4064L31.9836 0.40029Z" fill="#FFD466"/>
<path d="M24.1989 22.7218L30.1554 18.6935C30.3633 18.5528 30.6356 18.5545 30.8418 18.6977L33.236 20.3603C33.44 20.502 33.7088 20.5053 33.9161 20.3688L38.2381 17.5233C38.6223 17.2704 38.6018 16.6968 38.2005 16.4723L30.8083 12.3371C30.6176 12.2304 30.3848 12.2344 30.1978 12.3476L13.016 22.7481C12.6265 22.9838 12.6206 23.5502 13.0051 23.7942L30.2032 34.705C30.387 34.8216 30.6184 34.831 30.8109 34.7296L43.5959 28.0003C44.0021 27.7865 44.4885 28.0832 44.4885 28.5446V42.6432C44.4885 42.8655 44.3693 43.0703 44.1768 43.179L30.795 50.7329C30.6115 50.8365 30.3879 50.8375 30.2035 50.7357L16.5104 43.1779C16.315 43.0701 16.1936 42.8636 16.1936 42.6393V32.9092C16.1936 32.6851 16.0723 32.4787 15.8772 32.3708L11.6925 30.0574C11.286 29.8327 10.7889 30.1289 10.7889 30.5959V46.6925C10.7889 46.9177 10.9113 47.1248 11.1078 47.2323L30.1981 57.6703C30.3855 57.7728 30.6125 57.7692 30.7967 57.661L49.8027 46.4888C49.99 46.3787 50.1051 46.1767 50.1051 45.9583V23.6172C50.1051 23.3975 49.9887 23.1946 49.7997 23.085L44.1602 19.8126C43.9701 19.7023 43.7358 19.7033 43.5467 19.8151L30.8115 27.3463C30.6194 27.4599 30.3811 27.459 30.1899 27.3441L24.2263 23.7591C23.8421 23.5281 23.8274 22.973 24.1989 22.7218Z" fill="#FFD466"/>
<path d="M203.956 21.494V12H162.234L157.019 17.6964V32.8869L162.234 37.9504H194.829V49.3433H157.019V56.9385H197.437L203.304 50.6091V36.0516L196.785 29.7222H164.842V21.494H203.956Z" fill="#4A4A4A"/>
<path d="M213.082 50.6091V17.0635L219.601 12H260.019V20.8611H221.557V29.7222H259.367V39.2163H222.209V48.0774H260.019V56.9385H219.601L213.082 50.6091Z" fill="#4A4A4A"/>
<path d="M99 51.2421V12H109.43V48.0774H137.462V12H146.589V51.2421L139.418 57.5714H106.823L99 51.2421Z" fill="#4A4A4A"/>
</svg>
