<svg width="31" height="36" viewBox="0 0 31 36" fill="none" xmlns="http://www.w3.org/2000/svg">
<path d="M16.254 0.202027C15.7874 -0.0673424 15.2126 -0.0673424 14.746 0.202027L0.753976 8.28034C0.287414 8.54971 0 9.04753 0 9.58626V25.7429C0 26.2816 0.287414 26.7794 0.753976 27.0488L14.746 35.1271C15.2126 35.3965 15.7874 35.3965 16.254 35.1271L30.246 27.0488C30.7126 26.7794 31 26.2816 31 25.7429V18.8329C31 18.5051 30.6484 18.2973 30.3613 18.4555L28.207 19.6423C28.0695 19.7181 27.9841 19.8627 27.9841 20.0197V24.6235C27.9841 24.7775 27.902 24.9197 27.7687 24.9966L15.7154 31.9556C15.5821 32.0326 15.4179 32.0326 15.2846 31.9556L3.23133 24.9966C3.09802 24.9197 3.0159 24.7775 3.0159 24.6235V10.7056C3.0159 10.5517 3.09802 10.4095 3.23133 10.3325L15.2846 3.37356C15.4179 3.2966 15.5821 3.2966 15.7154 3.37356L27.7687 10.3325C27.902 10.4095 27.9841 10.5517 27.9841 10.7056V16.4156C27.9841 16.7348 28.3191 16.9432 28.6054 16.802L30.7596 15.7401C30.9068 15.6676 31 15.5178 31 15.3537V9.58626C31 9.04753 30.7126 8.54971 30.246 8.28034L16.254 0.202027Z" fill="url(#paint0_linear)"/>
<path d="M12.5972 11.2666L15.1957 9.52136C15.3793 9.39804 15.6197 9.39952 15.8017 9.52509L16.7641 10.1888C16.9441 10.3129 17.1814 10.3159 17.3645 10.1962L19.1156 9.05126C19.4548 8.82946 19.4367 8.32656 19.0824 8.12973L15.7722 6.29072C15.6038 6.19717 15.3982 6.20069 15.2332 6.29994L6.93291 11.2897C6.58905 11.4964 6.58384 11.993 6.9233 12.2069L15.2379 17.4456C15.4002 17.5478 15.6046 17.5561 15.7745 17.4672L21.8209 14.3066C22.1794 14.1192 22.6089 14.3793 22.6089 14.7839V21.3882C22.6089 21.5831 22.5037 21.7627 22.3337 21.858L15.7604 25.543C15.5984 25.6339 15.4011 25.6348 15.2382 25.5455L8.5092 21.857C8.33673 21.7625 8.22952 21.5815 8.22952 21.3848V16.7446C8.22952 16.5481 8.12244 16.3671 7.95015 16.2725L6.28063 15.3559C5.92172 15.1589 5.48289 15.4186 5.48289 15.828V23.4298C5.48289 23.6273 5.59094 23.8089 5.76445 23.9031L15.2334 29.0449C15.3989 29.1348 15.5993 29.1317 15.762 29.0367L25.1962 23.5291C25.3616 23.4326 25.4633 23.2555 25.4633 23.064V12.0517C25.4633 11.8591 25.3604 11.6812 25.1936 11.5851L22.5572 10.0658C22.3894 9.96913 22.1826 9.96998 22.0156 10.0681L15.775 13.7332C15.6054 13.8328 15.395 13.832 15.2262 13.7312L12.6214 12.1761C12.2822 11.9736 12.2692 11.4869 12.5972 11.2666Z" fill="url(#paint1_linear)"/>
<defs>
<linearGradient id="paint0_linear" x1="19.1187" y1="15.3488" x2="3.9853" y2="47.9313" gradientUnits="userSpaceOnUse">
<stop stop-color="#FFD466"/>
<stop offset="1" stop-color="#FFEA00"/>
</linearGradient>
<linearGradient id="paint1_linear" x1="19.1187" y1="15.3488" x2="3.9853" y2="47.9313" gradientUnits="userSpaceOnUse">
<stop stop-color="#FFD466"/>
<stop offset="1" stop-color="#FFEA00"/>
</linearGradient>
</defs>
</svg>
